Coordinates
version=1
nRows=17
nColumns=24
inDegrees=yes

Units are S.I. units (second, meters, Newtons, ...)
Angles are in degrees.

endheader
time	pelvis_tilt	pelvis_list	pelvis_rotation	pelvis_tx	pelvis_ty	pelvis_tz	hip_flexion_r	hip_adduction_r	hip_rotation_r	knee_angle_r	ankle_angle_r	subtalar_angle_r	mtp_angle_r	hip_flexion_l	hip_adduction_l	hip_rotation_l	knee_angle_l	ankle_angle_l	subtalar_angle_l	mtp_angle_l	lumbar_extension	lumbar_bending	lumbar_rotation
      0.96300000	     -4.68595131	     -2.41320724	     -0.08103704	     -0.39564188	      0.99426196	      0.35097510	     13.89867472	      7.09413325	     -0.13752650	    -16.80015785	      5.45026176	     -9.77495369	      2.81187001	     23.88682936	     -3.52960070	      0.11343016	    -69.25326209	     -1.93308804	    -13.24325484	     -0.80119189	      3.24436482	      5.56491363	      4.67142664
      0.96716667	     -4.68561521	     -2.37183646	     -0.16917738	     -0.39114337	      0.99470146	      0.35123473	     13.45009704	      7.05943558	     -0.13426053	    -16.48982486	      5.49299498	     -9.56867599	      2.77931808	     24.45493146	     -3.50922609	      0.06275916	    -68.96231901	     -1.42840193	    -13.20403457	     -0.84568033	      3.15950647	      5.50510433	      4.79404408
      0.97133333	     -4.67267350	     -2.32099975	     -0.25559513	     -0.38661527	      0.99515306	      0.35146840	     12.98375243	      7.01084143	     -0.13450450	    -16.17546325	      5.53896991	     -9.36500726	      2.75661100	     24.98708177	     -3.47229408	      0.01586708	    -68.61372047	     -0.93101279	    -13.14499415	     -0.87716221	      3.07166954	      5.45905273	      4.90939064
      0.97550000	     -4.66281221	     -2.28904651	     -0.33586099	     -0.38210089	      0.99556030	      0.35170564	     12.51861320	      6.98171376	     -0.13851426	    -15.85196099	      5.58558260	     -9.13054669	      2.73498068	     25.51854249	     -3.45766582	     -0.01865313	    -68.23654870	     -0.44859973	    -13.02000933	     -0.90998420	      2.97876519	      5.40655934	      5.04631387
      0.97966667	     -4.65766259	     -2.24434434	     -0.41983422	     -0.37759094	      0.99593478	      0.35191986	     12.06651124	      6.93554025	     -0.14279488	    -15.54658745	      5.64112373	     -8.90383743	      2.71833741	     26.03783612	     -3.42539562	     -0.05641935	    -67.81105372	      0.01364692	    -12.90212485	     -0.93717672	      2.89494339	      5.35871560	      5.17000938
      0.98383333	     -4.63893606	     -2.20625069	     -0.48797988	     -0.37306401	      0.99631496	      0.35211798	     11.59235569	      6.89090290	     -0.17577687	    -15.22512696	      5.70611414	     -8.62697187	      2.69839865	     26.53017185	     -3.39685385	     -0.07855625	    -67.34186209	      0.43195086	    -12.72216641	     -0.97562396	      2.80152360	      5.30199507	      5.32402783
      0.98800000	     -4.63912338	     -2.16764848	     -0.58075194	     -0.36857536	      0.99662007	      0.35233112	     11.15407650	      6.85049191	     -0.16760430	    -14.93327428	      5.75525737	     -8.40121226	      2.68846013	     27.02992519	     -3.37385450	     -0.11979752	    -66.84044678	      0.88277217	    -12.59106045	     -0.99611121	      2.71182698	      5.25218221	      5.42618092
      0.99216667	     -4.62566520	     -2.12909181	     -0.65786401	     -0.36405379	      0.99692871	      0.35251876	     10.69376288	      6.80326807	     -0.19332932	    -14.62848524	      5.81780200	     -8.14075879	      2.68069173	     27.49693445	     -3.34563327	     -0.14619767	    -66.29043315	      1.29333718	    -12.38090627	     -1.01775035	      2.62882770	      5.21334688	      5.55526100
      0.99633333	     -4.61624113	     -2.08996120	     -0.73958968	     -0.35953963	      0.99720932	      0.35270962	     10.23921581	      6.75633442	     -0.20575812	    -14.32664274	      5.87704222	     -7.88276409	      2.67701512	     27.95387638	     -3.31704884	     -0.17466855	    -65.70052808	      1.67992574	    -12.18502522	     -1.03543308	      2.54194995	      5.16346427	      5.67503572
      1.00050000	     -4.60650372	     -2.06161309	     -0.81779610	     -0.35502819	      0.99745509	      0.35288578	      9.78493198	      6.71817706	     -0.22873974	    -14.02447431	      5.94060858	     -7.62453374	      2.67718532	     28.39862637	     -3.29888391	     -0.19641836	    -65.07684372	      2.05137806	    -11.95613946	     -1.05037967	      2.45884809	      5.13161081	      5.79350348
      1.00466667	     -4.58449883	     -2.01907339	     -0.89845389	     -0.35049730	      0.99772360	      0.35306229	      9.31452656	      6.66388571	     -0.24520450	    -13.71851064	      5.99862521	     -7.36682378	      2.68069520	     28.80481434	     -3.26532138	     -0.22393651	    -64.39695995	      2.39729557	    -11.72702410	     -1.06294278	      2.36089679	      5.07664921	      5.91088469
      1.00883333	     -4.59209202	     -1.99908507	     -0.98171208	     -0.34598623	      0.99787784	      0.35324294	      8.88146055	      6.63482282	     -0.25816904	    -13.42166494	      6.06016783	     -7.11010345	      2.68806333	     29.23942513	     -3.25734645	     -0.24341269	    -63.70223390	      2.73188762	    -11.47782241	     -1.07181718	      2.29712038	      5.05260224	      6.02544457
      1.01300000	     -4.56893926	     -1.96214871	     -1.06190204	     -0.34145607	      0.99807671	      0.35341133	      8.41258077	      6.58356938	     -0.28151211	    -13.12076111	      6.12382288	     -6.85246188	      2.69893978	     29.61458818	     -3.22977999	     -0.26843460	    -62.95038050	      3.04012433	    -11.22218026	     -1.07923024	      2.20281700	      5.00642816	      6.14266356
      1.01716667	     -4.56857578	     -1.93863579	     -1.14619691	     -0.33693701	      0.99820855	      0.35358550	      7.96886626	      6.54855102	     -0.28935452	    -12.81891111	      6.18214823	     -6.59897701	      2.71301202	     30.00250472	     -3.21873358	     -0.29113279	    -62.16963585	      3.32722845	    -10.96654007	     -1.08355771	      2.13026966	      4.97708040	      6.25394932
      1.02133333	     -4.56936898	     -1.90798893	     -1.22878585	     -0.33240740	      0.99831226	      0.35374792	      7.53088338	      6.50253822	     -0.31263094	    -12.52716898	      6.24728534	     -6.34643713	      2.73071986	     30.37218184	     -3.19763436	     -0.31350754	    -61.34660369	      3.59004207	    -10.71322361	     -1.08656839	      2.06616119	      4.93972795	      6.36455094
      1.02550000	     -4.55884881	     -1.87932339	     -1.31529082	     -0.32787720	      0.99840381	      0.35391584	      7.07902956	      6.45879984	     -0.32476152	    -12.23140157	      6.31241430	     -6.08858969	      2.75159046	     30.71146470	     -3.18211208	     -0.34182692	    -60.48628410	      3.83238588	    -10.45807980	     -1.08769464	      1.98488853	      4.90475219	      6.47393193
      1.02966667	     -4.54843555	     -1.84837540	     -1.40149284	     -0.32333836	      0.99848195	      0.35407920	      6.62753419	      6.41131090	     -0.33740603	    -11.93601660	      6.37709786	     -5.84005506	      2.77494149	     31.03019383	     -3.16343077	     -0.37082044	    -59.58332920	      4.04611771	    -10.21377459	     -1.08741723	      1.90600362	      4.86562922	      6.57926080
